:SAMPLES-PER-SECOND 30
:FULLY-SPECIFIED
:DEGREES
331
root  17.674 38.285 -3.88413 51.3543 87.4361 51.3502
RightUpLeg  18.757 -11.5687 -9.58825
RightLeg  18.3182 12.9798 4.94992
RightFoot  -17.9624 0.0847785 3.5488
RightToes  0.000482159 0.542163 -0.142577
Spine  5.79099 2.56881 6.86564
Spine1  12.9789 6.3776 -10.3549
HEad  18.4502 14.8361 -4.05487
LeftShoulder1  7.78461 -11.5639 -45.0159
LeftArm  -8.42245 29.7312 -24.8531
LeftForeArm  24.5113 -9.94315 -5.32207
LeftHand  -0.25398 0.0180481 5.50724
RightShoulder  5.62015 9.49201 37.2295
RightArm  -0.268225 -2.71685 34.5002
RightForeArm  -2.5091 28.9584 6.41568
RightHand  -1.35749 3.09818 -18.708
LeftUpLeg  -24.9925 16.3802 -8.80636
LeftLeg  11.8247 19.8547 -0.177704
LeftFoot  0.848844 -0.522521 4.79016
LeftToes  1.06247e-005 4.65855e-005 -8.18504e-006
332
root  19.2018 38.087 -3.93213 68.5403 86.743 68.9188
RightUpLeg  19.3942 -11.2359 -11.4316
RightLeg  22.2329 13.5383 5.77927
RightFoot  -15.6243 0.149028 6.9758
RightToes  0.000482159 0.542163 -0.142577
Spine  5.86723 2.92037 4.01465
Spine1  12.7947 6.38996 -9.59859
HEad  19.397 15.1875 -3.38558
LeftShoulder1  7.63955 -11.2943 -44.9785
LeftArm  -8.88977 30.4154 -24.2629
LeftForeArm  23.735 -9.92979 -5.11628
LeftHand  -0.25398 0.0180481 5.50724
RightShoulder  5.76296 9.58113 37.9991
RightArm  -1.20104 -5.41061 34.7389
RightForeArm  -1.86449 29.0403 6.40162
RightHand  -1.353 3.11817 -18.6063
LeftUpLeg  -26.5483 22.5829 -13.8518
LeftLeg  16.8302 11.7512 3.39434
LeftFoot  1.80797 -1.13676 9.81452
LeftToes  1.06247e-005 4.65855e-005 -8.18504e-006
333
root  20.6269 38.0208 -3.99318 87.7301 85.8741 88.6084
RightUpLeg  17.5549 -9.85468 -12.7258
RightLeg  29.5935 12.7225 7.48757
RightFoot  -9.37361 -0.264123 10.8278
RightToes  0.000482159 0.542163 -0.142577
Spine  6.70036 2.99814 1.32604
Spine1  12.2957 6.1441 -9.04188
HEad  19.9629 15.5397 -3.04466
LeftShoulder1  7.61035 -11.2429 -44.9617
LeftArm  -9.48534 29.7353 -23.7139
LeftForeArm  23.1264 -9.5965 -4.92884
LeftHand  -0.25398 0.0180481 5.50724
RightShoulder  5.86069 9.68464 38.3793
RightArm  -1.55711 -7.87889 35.7017
RightForeArm  -1.88622 27.6636 6.0665
RightHand  -1.37826 3.20841 -18.7612
LeftUpLeg  -25.9871 21.6926 -14.8178
LeftLeg  20.9883 11.2412 5.17477
LeftFoot  0.247969 -1.18364 11.5755
LeftToes  1.06247e-005 4.65855e-005 -8.18504e-006
334
root  21.8823 38.039 -4.08421 98.0797 84.8465 99.2277
RightUpLeg  12.549 -7.81545 -13.3238
RightLeg  39.7193 10.8922 9.29408
RightFoot  2.01034 -1.55575 13.3724
RightToes  0.000482159 0.542163 -0.142577
Spine  7.80395 2.97051 -0.463576
Spine1  11.8826 6.02567 -9.3237
HEad  20.1625 16.1167 -3.18288
LeftShoulder1  7.6671 -11.402 -44.8086
LeftArm  -10.2026 28.0016 -23.5612
LeftForeArm  22.7375 -9.5956 -4.75106
LeftHand  -0.25398 0.0180481 5.50724
RightShoulder  5.90913 9.85124 38.1956
RightArm  -0.313582 -9.34727 37.2538
RightForeArm  -2.68563 24.7416 5.4578
RightHand  -1.29102 2.85439 -18.3097
LeftUpLeg  -24.4989 20.4995 -14.9746
LeftLeg  23.5892 11.7282 5.87874
LeftFoot  -2.48587 -0.831416 10.879
LeftToes  1.06247e-005 4.65855e-005 -8.18504e-006
335
root  22.9717 38.0507 -4.17872 100.905 83.8433 102.087
RightUpLeg  5.73431 -5.79896 -13.7634
RightLeg  49.8205 8.01558 9.67664
RightFoot  12.9199 -2.93887 14.1056
RightToes  0.000482159 0.542163 -0.142577
Spine  8.93299 2.95833 -1.94983
Spine1  11.6478 5.93211 -10.0248
HEad  20.3153 17.044 -3.76498
LeftShoulder1  7.73576 -11.5824 -44.6637
LeftArm  -10.8571 25.829 -23.7112
LeftForeArm  22.4359 -10.7232 -4.58942
LeftHand  -0.25398 0.0180481 5.50724
RightShoulder  5.97341 10.125 37.7933
RightArm  1.85854 -9.85158 38.6086
RightForeArm  -1.68374 21.4399 5.10868
RightHand  -0.960074 1.53163 -16.1355
LeftUpLeg  -23.0667 20.8722 -15.5338
LeftLeg  24.9229 11.1119 5.91967
LeftFoot  -4.72322 -0.555419 10.0886
LeftToes  1.06247e-005 4.65855e-005 -8.18504e-006
336
root  24.0493 38.1845 -4.27866 108.672 83.0932 110.022
RightUpLeg  -0.606972 -5.58797 -14.1374
RightLeg  57.7584 4.37853 6.97131
RightFoot  16.592 -3.02959 12.5797
RightToes  0.000482159 0.542163 -0.142577
Spine  10.0667 2.57575 -3.02292
Spine1  11.3579 5.31716 -10.073
HEad  20.48 18.0116 -4.54029
LeftShoulder1  7.78809 -11.6797 -44.6791
LeftArm  -11.0262 23.4121 -23.8565
LeftForeArm  22.0071 -13.2868 -4.36493
LeftHand  -0.25398 0.0180481 5.50724
RightShoulder  6.05649 10.3738 37.6118
RightArm  2.6667 -9.98146 39.1736
RightForeArm  3.10065 19.1414 5.42246
RightHand  -0.617389 0.0629311 -13.2078
LeftUpLeg  -20.8111 21.2055 -15.5041
LeftLeg  24.8736 9.97596 5.35913
LeftFoot  -6.1084 -0.404779 9.64277
LeftToes  1.06247e-005 4.65855e-005 -8.18504e-006
337
root  25.1615 38.5309 -4.39839 126.36 82.3008 128.1
RightUpLeg  -5.69703 -7.6249 -13.7857
RightLeg  62.4946 0.978233 1.53881
RightFoot  13.7178 -1.87374 8.77562
RightToes  0.000482159 0.542163 -0.142577
Spine  11.2199 1.62495 -3.03678
Spine1  11.0183 4.1233 -9.2877
HEad  20.5213 18.535 -5.18554
LeftShoulder1  7.81694 -11.751 -44.6336
LeftArm  -10.5775 20.6628 -24.023
LeftForeArm  21.5812 -17.1452 -3.96769
LeftHand  -0.25398 0.0180481 5.50724
RightShoulder  6.0853 10.416 37.6846
RightArm  2.89765 -10.303 39.1931
RightForeArm  7.00509 18.4848 5.46342
RightHand  -0.52515 -0.353748 -12.0937
LeftUpLeg  -17.2278 20.6216 -14.3581
LeftLeg  23.0804 8.54407 4.32024
LeftFoot  -6.84099 -0.312068 8.97242
LeftToes  1.06247e-005 4.65855e-005 -8.18504e-006
338
root  26.1998 38.8773 -4.49605 143.86 80.7927 145.93
RightUpLeg  -10.2489 -10.0318 -12.6929
RightLeg  63.8524 -1.34406 -3.52473
RightFoot  9.20149 -0.85781 5.12045
RightToes  0.000482159 0.542163 -0.142577
Spine  12.4231 0.656709 -2.54744
Spine1  10.7823 2.90889 -8.46286
HEad  20.4806 18.5325 -5.53688
LeftShoulder1  7.80857 -11.8539 -44.2714
LeftArm  -10.5112 17.8833 -24.3341
LeftForeArm  22.3273 -22.2621 -3.79975
LeftHand  -0.25398 0.0180481 5.50724
RightShoulder  6.04241 10.3024 37.7318
RightArm  2.92019 -11.0072 39.0532
RightForeArm  6.72382 18.9863 5.29627
RightHand  -0.633459 0.110515 -13.3601
LeftUpLeg  -13.7256 19.7011 -12.7725
LeftLeg  21.0588 6.9622 3.27864
LeftFoot  -7.32617 -0.248026 8.3271
LeftToes  1.06247e-005 4.65855e-005 -8.18504e-006
